<?xml version="1.0" encoding="UTF-8"?>
<svg id="Layer_1" xmlns="http://www.w3.org/2000/svg" version="1.1" viewBox="0 0 43.05 42.4">
  <!-- Generator: Adobe Illustrator 29.8.1, SVG Export Plug-In . SVG Version: 2.1.1 Build 2)  -->
  <defs>
    <style>
      .st0, .st1 {
        fill: #f09ea7;
      }

      .st1 {
        font-size: 25.09px;
        stroke: #f09ea7;
        stroke-miterlimit: 10;
      }

      .st1, .st2 {
        font-family: ArialMT, Arial;
        stroke-width: 2px;
      }

      .st3, .st2 {
        fill: #c1ebc0;
      }

      .st2 {
        font-size: 19.8px;
        stroke: #c1ebc0;
        stroke-linecap: round;
        stroke-linejoin: round;
      }
    </style>
  </defs>
  <g>
    <circle class="st0" cx="30.49" cy="16.24" r="10.2"/>
    <path class="st0" d="M25.76,8.02c4.52-2.61,10.34-1.03,12.97,3.53,2.63,4.56,1.09,10.38-3.43,13-4.52,2.61-10.34,1.03-12.97-3.53-2.63-4.56-1.09-10.38,3.43-13M24.54,5.89c-5.7,3.29-7.64,10.61-4.32,16.35,3.32,5.74,10.62,7.73,16.32,4.43s7.64-10.61,4.32-16.35c-3.32-5.74-10.62-7.73-16.32-4.43h0Z"/>
    <path class="st3" d="M20.32,35.65c-6.02,3.48-13.77,1.37-17.27-4.69s-1.45-13.83,4.57-17.3c6.02-3.48,13.77-1.37,17.27,4.69,3.5,6.06,1.45,13.83-4.57,17.3Z"/>
    <path class="st3" d="M8.52,15.23c5.16-2.98,11.81-1.18,14.81,4.03,3,5.2,1.25,11.85-3.92,14.84-5.17,2.98-11.81,1.18-14.81-4.03-3-5.2-1.25-11.85,3.92-14.84M7.24,13C.85,16.69-1.33,24.9,2.39,31.34c3.72,6.44,11.91,8.67,18.31,4.97s8.57-11.9,4.85-18.34S13.64,9.3,7.24,13h0Z"/>
  </g>
  <text class="st1" transform="translate(8.4 36.93) rotate(-23.58)"><tspan x="0" y="0">Q</tspan></text>
  <text class="st2" transform="translate(21.53 21.99) rotate(12.59)"><tspan x="0" y="0">C</tspan></text>
</svg>