<?xml version="1.0" encoding="UTF-8"?>
<svg id="Layer_1" xmlns="http://www.w3.org/2000/svg" version="1.1" viewBox="0 0 43.05 42.4">
  <!-- Generator: Adobe Illustrator 29.8.1, SVG Export Plug-In . SVG Version: 2.1.1 Build 2)  -->
  <defs>
    <style>
      .st0 {
        stroke: #000;
        stroke-miterlimit: 10;
      }

      .st0, .st1 {
        fill: #f09ea7;
      }

      .st2 {
        fill: #c1ebc0;
      }
    </style>
  </defs>
  <circle class="st0" cx="30.54" cy="16.28" r="11.18"/>
  <path class="st2" d="M20.32,35.65c-6.02,3.48-13.77,1.37-17.27-4.69s-1.45-13.83,4.57-17.3c6.02-3.48,13.77-1.37,17.27,4.69,3.5,6.06,1.45,13.83-4.57,17.3Z"/>
  <path class="st1" d="M8.52,15.23c5.16-2.98,11.81-1.18,14.81,4.03,3,5.2,1.25,11.85-3.92,14.84-5.17,2.98-11.81,1.18-14.81-4.03-3-5.2-1.25-11.85,3.92-14.84M7.24,13C.85,16.69-1.33,24.9,2.39,31.34c3.72,6.44,11.91,8.67,18.31,4.97s8.57-11.9,4.85-18.34S13.64,9.3,7.24,13h0Z"/>
  <path class="st1" d="M20.06,27.53c.99.19,1.84.23,2.53.17l.29,1.46c-.99.1-2.08.01-3.25-.29-.48,1.01-1.2,1.79-2.16,2.35-1.58.92-3.26.96-5.04.13-1.6-.76-2.96-2.08-4.07-4-.84-1.44-1.32-2.82-1.45-4.14s.02-2.47.51-3.44,1.19-1.73,2.16-2.29,1.99-.78,3.08-.7,2.18.52,3.23,1.28c1.05.76,1.99,1.86,2.81,3.26.64,1.1,1.08,2.18,1.3,3.24s.27,2.03.09,2.93h-.03v.02ZM15.6,27.12c.99-.2,1.91-.16,2.78.09.29-1.44-.12-3.1-1.21-5-.65-1.14-1.37-2.03-2.16-2.64s-1.57-.95-2.38-1.03-1.53.07-2.21.45c-1.07.62-1.7,1.57-1.87,2.88-.19,1.31.23,2.85,1.27,4.64s2.14,2.88,3.38,3.37,2.38.44,3.43-.16c.51-.29.91-.69,1.24-1.19-.65-.09-1.28-.08-1.87.06l-.38-1.48h-.01Z"/>
  <path class="st2" d="M25.76,8.02c4.52-2.61,10.34-1.03,12.97,3.53,2.63,4.56,1.09,10.38-3.43,13-4.52,2.61-10.34,1.03-12.97-3.53-2.63-4.56-1.09-10.38,3.43-13M24.54,5.89c-5.7,3.29-7.64,10.61-4.32,16.35,3.32,5.74,10.62,7.73,16.32,4.43s7.64-10.61,4.32-16.35c-3.32-5.74-10.62-7.73-16.32-4.43h0Z"/>
  <path class="st2" d="M33.2,19l1.26.8c-.69,1.32-1.5,2.24-2.44,2.74s-1.97.58-3.05.3c-.95-.25-1.72-.71-2.26-1.36-.55-.66-.91-1.55-1.07-2.69s-.05-2.42.33-3.82.91-2.5,1.58-3.35,1.47-1.42,2.35-1.7c.86-.29,1.76-.31,2.68-.07,1,.26,1.76.8,2.32,1.61s.81,1.85.77,3.13l-1.44.02c.01-1.87-.68-2.99-2.05-3.36-.69-.19-1.33-.17-1.93.05s-1.14.66-1.64,1.32c-.51.67-.91,1.56-1.22,2.7-.46,1.73-.5,3.11-.13,4.13s1.06,1.67,2.07,1.94c.75.2,1.47.11,2.14-.27.68-.38,1.26-1.1,1.73-2.11h-.01Z"/>
</svg>